<?xml version="1.0" encoding="UTF-8"?>
<svg id="Layer_1" data-name="Layer 1" xmlns="http://www.w3.org/2000/svg" viewBox="0 0 2749.12 1006.39">
  <defs>
    <style>
      .cls-1 {
        fill: #fff;
      }

      .cls-2 {
        fill: #391749;
      }
    </style>
  </defs>
  <path class="cls-2" d="m0,0l363.42,975.23s13.11,31.16,41.7,31.16h1916.2s42.8.77,59.69-29.85S2749.12,0,2749.12,0H0Z"/>
  <g id="_8FWD8D" data-name="8FWD8D">
    <g>
      <path class="cls-1" d="m1486.29,473.41c2.37,1.21,3.67,3.05,5.21,4.6,55.85,55.82,111.7,111.65,167.49,167.53,9.55,9.56,20.7,13.59,34.03,10.78,7.34-1.55,13.24-5.59,18.5-10.86,24.74-24.85,49.57-49.62,74.37-74.41,54.39-54.4,108.79-108.81,163.18-163.21,1.9-1.9,3.83-3.77,5.6-5.79,12.39-14.03,12.09-34.17-.92-47.66-8.77-9.09-17.83-17.91-26.76-26.84-70.58-70.58-141.16-141.17-211.74-211.75-1.78-1.78-3.56-3.59-5.38-5.34-14.51-13.83-35.56-13.71-49.75.45-37.35,37.27-74.63,74.6-111.93,111.91-40.87,40.89-81.71,81.81-122.59,122.69-105.88,105.88-211.8,211.73-317.66,317.64-14.19,14.19-31.04,20.77-51.04,18.59-14.19-1.55-26.16-7.84-36.19-17.94-10.68-10.75-21.42-21.46-32.14-32.18-69.24-69.24-138.44-138.51-207.74-207.68-9.54-9.51-16.64-20.22-19.07-33.61-3.76-20.73,1.63-38.9,16.39-53.92,20.27-20.62,40.83-40.93,61.27-61.37,60.2-60.22,120.43-120.4,180.57-180.67,11.43-11.45,24.91-18.28,41.1-19,17.44-.78,32.61,4.99,45.07,17.32,13.47,13.33,26.83,26.77,40.23,40.18,26.47,26.47,52.94,52.94,79.41,79.41,14.96,14.96,29.94,29.91,44.91,44.86.67.67,1.3,1.39,2.01,2.01,1.29,1.12,1.59,2.09.18,3.48-5.27,5.2-10.44,10.49-15.66,15.75-2.05-1.08-3.22-2.6-4.54-3.91-53.95-53.92-107.91-107.83-161.81-161.79-4.76-4.77-9.85-8.92-16.43-10.78-13.65-3.85-25.62-.84-35.68,9.19-19.02,18.95-37.99,37.97-56.98,56.95-61.43,61.44-122.84,122.89-184.31,184.29-5.14,5.14-9.28,10.8-10.91,17.96-2.86,12.65.11,23.82,9.2,33.14,8.16,8.37,16.49,16.57,24.76,24.83,72.28,72.29,144.58,144.55,216.82,216.89,5.38,5.39,11.31,9.66,18.83,11.23,12.11,2.53,22.96-.2,31.91-8.89,10.2-9.9,20.16-20.05,30.21-30.1,51.27-51.27,102.54-102.54,153.79-153.83,18.42-18.43,36.78-36.94,55.2-55.37,44.88-44.91,89.76-89.81,134.68-134.69,59.56-59.51,119.16-118.98,178.68-178.52,7.96-7.97,16.84-14.32,27.82-17.26,22.07-5.9,41.92-1.4,58.26,14.53,26.8,26.12,53.05,52.81,79.51,79.28,54.49,54.49,108.94,109.03,163.48,163.47,9.96,9.94,16.63,21.51,18.29,35.5,2.35,19.84-3.32,37.1-17.65,51.36-21.5,21.39-42.9,42.88-64.34,64.33-58.75,58.76-117.52,117.49-176.22,176.3-6.56,6.57-13.65,12.31-22.41,15.48-23.68,8.57-45.38,4.86-63.63-12.6-21.11-20.19-41.44-41.19-62.1-61.85-36.29-36.29-72.58-72.59-108.86-108.88q-3.73-3.74-.06-7.42c4.54-4.6,9.06-9.21,13.55-13.77Z"/>
      <path class="cls-1" d="m1074.37,873.14v4.17c0,16.58,0,33.17,0,49.75,0,4.09-.04,4.1-4.12,4.13-2.68.02-5.37-.02-8.05,0-3.9.04-3.8.16-3.76-3.98,0-.47,0-.94,0-1.42,0-44.54-.01-89.07.01-133.61,0-5.95-.93-5.25,5.21-5.31,2.68-.03,5.37.09,8.05-.04,2.06-.09,2.75.69,2.69,2.75-.12,4.36-.03,8.73-.03,13.08,1.47.18,1.6-.8,1.99-1.35,10.14-14.48,24.28-18.95,41.08-15.99,15.52,2.75,24.59,13.03,28.95,27.43,4.8,15.86,4.26,31.9-1.72,47.4-5.3,13.72-14.67,23.54-29.62,26.67-15.76,3.3-29.53.34-39.38-13.63-.23-.32-.41-.48-1.29-.04Zm.15-35.63c0,3.63-.2,7.26.03,10.87,1.17,17.45,17.16,29.33,34.27,25.57,10.77-2.37,17.08-9.54,20.77-19.41,3.2-8.57,3.69-17.5,3.1-26.55-.36-5.58-1.57-10.92-4.19-15.86-3.74-7.05-9.34-11.88-17.27-13.5-16.7-3.42-31.42,5.93-35.66,22.42-1.39,5.44-1.15,10.95-1.06,16.46Z"/>
      <path class="cls-1" d="m1026.7,767.84c-10.33-6.37-21.37-8.42-32.93-8.04-5.55.18-10.94,1.21-16.04,3.61-14.71,6.92-14.03,24.55-4.28,32.59,3.55,2.93,7.42,5.32,11.46,7.51,7.91,4.27,16.14,7.93,23.86,12.56,5.31,3.18,10.23,6.82,14.59,11.23,14.29,14.46,11.2,36.55,1.24,46.95-6.62,6.92-14.91,10.51-24.06,12.24-15.04,2.84-29.85,1.57-44.4-3.12-.9-.29-1.78-.63-2.65-.99q-4.27-1.79-4.27-6.59c0-4.69,0-9.38,0-14.67,9.77,7.13,20.18,10.4,31.26,11.84,6.98.91,13.88.38,20.64-1.53,17.36-4.92,18.46-24.78,8.71-33.97-3.95-3.73-8.4-6.67-13.14-9.21-7.79-4.17-15.64-8.22-23.42-12.39-4.47-2.39-8.57-5.31-12.45-8.58-16.55-13.97-15.61-41.51,4.38-53.93,9.12-5.67,19.19-7.97,29.73-8.31,9.01-.29,18.01.14,26.77,2.62,5.58,1.57,5.55,1.66,5.55,7.39,0,3.79-.01,7.58-.03,11.37-.01.27-.2.54-.52,1.42Z"/>
      <path class="cls-1" d="m1247.08,863.74c0,4.56-.15,8.33.06,12.07.13,2.26-.87,3.43-2.64,4.48-5.76,3.44-11.96,5.59-18.58,6.65-7.7,1.24-15.43,1.62-23.09.24-16.06-2.89-26.7-12.42-31.71-27.79-4.82-14.8-5.19-29.88.26-44.6,5.4-14.6,15.38-24.83,30.79-28.94,8.59-2.29,17.23-1.93,25.67.81,10.78,3.5,17.79,11.07,22.01,21.36,3.99,9.72,4.24,19.97,4.04,30.27-.03,1.36-.54,2.03-1.95,1.97-1.1-.05-2.21,0-3.32,0h-58.74c-1.11,0-2.22.05-3.31-.01-1.56-.08-2.25.43-2.19,2.15.54,16.08,9.47,31.26,29.73,32.08,10.28.41,19.67-2.17,28.29-7.68,1.32-.83,2.61-1.7,4.69-3.07Zm-62.63-36.92h45.17q8.72,0,7.11-8.72c-3.35-18.01-22.67-26.2-38-15.97-8.56,5.7-12.62,14.16-14.28,24.69Z"/>
      <path class="cls-1" d="m1546.18,809.34c0-4.32.17-8.26-.06-12.18-.16-2.58.75-4.05,3-5.21,5.5-2.85,11.21-5.04,17.29-6.2,7.81-1.49,15.66-1.84,23.53-.38,13.14,2.44,21.68,11.41,23.89,25.34.57,3.57.9,7.22.92,10.84.09,20.04.05,40.09.04,60.14,0,4.05-.04,4.06-4.13,4.08-3.16.02-6.32-.07-9.47.03-1.82.06-2.53-.58-2.48-2.43.09-3.77.03-7.55.03-11.34-1.72-.59-1.9.95-2.39,1.68-11.15,16.44-31.27,16.56-43.59,11.5-9-3.7-14.15-10.68-15.75-20.34-.79-4.77-.56-9.48.48-14.1,2.04-9.09,7.63-15.33,16.01-19.28,7.42-3.5,15.43-4.3,23.38-5.44,6.4-.92,12.78-1.97,19.2-2.67,2.43-.27,2.92-1.38,2.64-3.38-.38-2.65-.58-5.36-1.28-7.93-2.66-9.88-9.73-14.69-20.63-14.14-9.69.5-18.53,3.44-26.48,9.07-1.13.79-2.02,2-4.13,2.33Zm52.5,26.45c-8.07,1.13-15.68,2.25-23.3,3.25-4.23.56-8.38,1.4-12.33,3.04-7.49,3.11-10.49,8.13-10.09,16.81.34,7.25,4.58,12.52,11.84,14.71,14.07,4.23,29.1-4.57,32.89-19.23,1.56-6.03.94-12.14,1-18.57Z"/>
      <path class="cls-1" d="m1423.95,805.04c-7.28-4.37-14.29-6.49-21.8-7-5.11-.34-10.04.17-14.79,2.27-10.21,4.53-10.04,17.46-2.1,22.73,2.92,1.94,6.07,3.35,9.27,4.69,4.8,2,9.64,3.9,14.41,5.95,3.19,1.37,6.15,3.17,9.06,5.1,14.2,9.41,13.55,30.78,1.11,40.41-5.65,4.37-12.03,6.86-18.99,7.9-11.41,1.71-22.63,1.14-33.5-3.19-2.62-1.04-4.08-2.32-3.83-5.47.32-4.08.08-8.19.08-12.41,2.1-.42,3.25,1.16,4.64,1.97,10.71,6.23,22.14,8.14,34.18,5.34,7.58-1.76,11.06-6.85,10.42-14.11-.33-3.72-2.3-6.47-5.01-8.79-2.79-2.39-6.07-3.94-9.43-5.33-5.09-2.11-10.23-4.12-15.27-6.35-2.58-1.14-5.04-2.59-7.49-4.03-15.35-9.06-15.78-31.55-1.36-42.07,6.86-5.01,14.65-7.27,22.92-8.01,8.26-.73,16.35.37,24.26,2.95,2.51.82,3.49,2.05,3.31,4.77-.26,3.9-.06,7.83-.06,12.67Z"/>
      <path class="cls-1" d="m1706.85,786.87c5.06,0,9.47-.13,13.87.05,2.55.1,3.22-.86,3.15-3.3-.15-6,.08-12-.12-17.99-.08-2.39.89-3.34,2.96-3.94,4.19-1.22,8.35-2.6,13.04-4.07,0,6.95-.06,13.37.03,19.79.04,2.97-1.28,6.76.58,8.7,2.06,2.15,5.96.61,9.05.72,4.26.16,8.52.1,12.78.02,1.84-.04,2.5.65,2.44,2.48-.1,2.83-.13,5.69,0,8.52.1,2.15-.85,2.67-2.79,2.64-6.31-.08-12.63.09-18.94-.09-2.53-.07-3.21.76-3.2,3.2.1,17.83.05,35.67.11,53.51.01,2.67.14,5.34.92,7.96,1.76,5.87,5.02,8.68,11.13,9.2,2.19.19,4.43.31,6.57-.4,1.92-.64,3.8-1.38,6.15-2.23,0,3.35.02,6.44,0,9.54-.03,3.83-.19,4.19-3.92,5.21-6.99,1.92-14.05,2.08-21.02.05-6.26-1.83-10.67-5.91-13.19-11.98-2.04-4.9-2.65-10.02-2.65-15.27.02-17.68,0-35.35,0-53.03,0-1.1-.08-2.22.01-3.31.15-1.9-.76-2.44-2.53-2.41-3.94.08-7.9-.08-11.84.06-2.12.07-2.74-.76-2.67-2.76.13-3.44.05-6.9.05-10.85Z"/>
      <path class="cls-1" d="m1345.07,866.24c0,4.92-.02,9.3,0,13.66,0,1.63-1.29,2.04-2.37,2.61-4.5,2.38-9.31,3.92-14.32,4.68-6.9,1.05-13.82,1.07-20.74-.11-17.61-3.01-32.2-16.99-35.73-37.06-2.18-12.37-1.38-24.62,3.66-36.24,7.16-16.51,19.81-26.09,37.7-28.65,9.7-1.39,19.17-.66,28.45,2.62,2.56.91,3.85,2.1,3.63,5.07-.3,3.91-.07,7.85-.07,12.04-1.95.16-3.04-1.17-4.32-1.85-8.82-4.77-18.18-6.57-27.9-3.99-14.17,3.76-21.76,13.87-24.77,27.67-1.77,8.12-1.55,16.37.78,24.38,4.96,17.05,19.55,26.06,38.71,22.8,4.88-.83,9.34-2.83,13.55-5.37,1.04-.62,2.08-1.26,3.73-2.26Z"/>
      <path class="cls-1" d="m1520.15,866.18c0,4.83-.06,8.78.03,12.72.04,1.62-.52,2.57-1.97,3.37-13.91,7.72-42.93,10.04-59.27-7.91-6.57-7.23-10.71-15.56-12.12-25.19-1.84-12.57-1.18-24.98,4.26-36.62,7.36-15.75,19.81-24.94,37.13-27.4,9.7-1.38,19.18-.68,28.46,2.61,2.55.9,3.86,2.05,3.63,5.03-.3,4-.08,8.05-.08,12.65-1.97-1.1-3.29-1.87-4.65-2.6-6.69-3.58-13.83-5.44-21.41-4.78-14.64,1.27-25.6,10.29-29.85,24.48-2.68,8.96-2.9,18.1-.62,27.15,5.69,22.57,25.98,28.26,43.16,23.19,4.55-1.36,8.55-3.82,13.29-6.7Z"/>
      <path class="cls-1" d="m1644.47,787.16c4.25-.56,8.35-.18,12.43-.27,1.08-.02,2.22-.21,3.5.67v17.82c1.77-1.66,2.09-3.37,2.86-4.78,3.83-7.07,9.09-12.45,17.07-14.68,4.36-1.21,8.75-.92,13.13-.24,1.49.23,2.6.84,2.57,2.73-.09,4.54-.03,9.07-.03,14.18-2.92-1.1-5.34-2.1-7.95-2.51-7.69-1.23-14.01,1.13-19.07,6.92-5.88,6.74-8.13,14.92-8.45,23.59-.34,8.99-.14,17.99-.15,26.99-.02,8.37-.1,16.74.05,25.1.05,2.56-.86,3.27-3.26,3.16-3.46-.16-6.95-.11-10.42-.02-1.84.05-2.62-.64-2.44-2.47.06-.62,0-1.26,0-1.9,0-30.15,0-60.3,0-90.45-.01-1.26.09-2.5.15-3.84Z"/>
      <path class="cls-1" d="m1791.35,887.73c-6.23.06-10.77-4.37-10.85-10.59-.08-6.12,4.47-11.03,10.39-11.21,6.04-.18,11.22,4.89,11.23,10.99.01,6.01-4.72,10.75-10.77,10.81Z"/>
    </g>
  </g>
</svg>